22600 0 2 4           
30 Autodesk Translation Framework 21 ASM 226.5.1.65535 OSX 24 Mon Nov 16 23:17:35 2020 
1 9.999999999999999547e-07 1.000000000000000036e-10 
asmheader $-1 -1 @13 226.5.1.65535 #
body $2 -1 $-1 $3 $-1 $4 #
rgb_color-st-attrib $-1 -1 $5 $-1 $1 0.627450980392156854 0.627450980392156854 0.627450980392156854 1 #
lump $-1 -1 $-1 $-1 $6 $1 #
transform $-1 -1 1 0 0 0 1 0 0 0 1 0 0 0 1 no_rotate no_reflect no_shear #
ATTRIB_CUSTOM-attrib $-1 -1 $-1 $2 $1 @20 Timestamp_attrib_def 1 1600361680513249 #
shell $-1 -1 $-1 $-1 $-1 $7 $-1 $3 #
face $8 -1 $-1 $9 $10 $6 $-1 $11 reversed single #
DXID-attrib $-1 -1 $-1 $-1 $7 @10 ASM ENTITY @1 0 #
face $12 -1 $-1 $13 $14 $6 $-1 $15 forward single #
loop $-1 -1 $-1 $-1 $16 $7 #
plane-surface $-1 -1 $-1 56.31995624530564726 114.5782370789614504 8.065524493146652318 -0.4999999999999995004 0.8660254037844390407 0 0 0 10 forward_v I I I I #
DXID-attrib $-1 -1 $-1 $-1 $9 @10 ASM ENTITY @1 1 #
face $17 -1 $-1 $18 $19 $6 $-1 $20 forward single #
loop $-1 -1 $-1 $21 $22 $9 #
plane-surface $-1 -1 $-1 124.9999999999999716 -0.0003509461096484756126 0 0.8660254037844387076 0.5 0 -5 8.660254037844387298 0 forward_v I I I I #
coedge $-1 -1 $-1 $23 $24 $25 $26 reversed $10 0 $-1 #
DXID-attrib $-1 -1 $-1 $-1 $13 @10 ASM ENTITY @1 2 #
face $27 -1 $-1 $28 $29 $6 $-1 $30 reversed single #
loop $-1 -1 $-1 $-1 $31 $13 #
plane-surface $-1 -1 $-1 60.56995624530561173 107.2170211467937406 10.56552449314665409 0 0 -1 -10 0 0 forward_v I I I I #
loop $-1 -1 $-1 $-1 $32 $9 #
coedge $-1 -1 $-1 $33 $34 $35 $36 forward $14 0 $-1 #
coedge $-1 -1 $-1 $37 $16 $38 $39 reversed $10 0 $-1 #
coedge $-1 -1 $-1 $16 $37 $33 $40 reversed $10 0 $-1 #
coedge $-1 -1 $-1 $35 $31 $16 $26 forward $19 0 $-1 #
edge $-1 -1 $-1 $41 -0.2810631387943469672 $42 0.2189368612056525332 $25 $43 forward @7 unknown #
DXID-attrib $-1 -1 $-1 $-1 $18 @10 ASM ENTITY @1 3 #
face $44 -1 $-1 $45 $46 $6 $-1 $47 forward single #
loop $-1 -1 $-1 $-1 $48 $18 #
plane-surface $-1 -1 $-1 64.81995624530560463 99.85580521462595982 8.065524493146652318 0.4999999999999995004 -0.8660254037844390407 0 0 0 -10 forward_v I I I I #
coedge $-1 -1 $-1 $25 $49 $50 $51 forward $19 0 $-1 #
coedge $-1 -1 $-1 $52 $53 $54 $55 reversed $21 0 $-1 #
coedge $-1 -1 $-1 $56 $22 $24 $40 forward $14 0 $-1 #
coedge $-1 -1 $-1 $22 $56 $57 $58 forward $14 0 $-1 #
coedge $-1 -1 $-1 $49 $25 $22 $36 reversed $19 0 $-1 #
edge $-1 -1 $-1 $59 5.153399491840509938 $42 6.853399491840509228 $22 $60 forward @7 unknown #
coedge $-1 -1 $-1 $24 $23 $61 $62 reversed $10 0 $-1 #
coedge $-1 -1 $-1 $50 $63 $23 $39 forward $64 0 $-1 #
edge $-1 -1 $-1 $65 -0.2217237753426678504 $41 0.2782762246573328158 $38 $66 forward @7 unknown #
edge $-1 -1 $-1 $42 -0.6532762246573328158 $67 -0.1532762246573321496 $33 $68 forward @7 unknown #
vertex $-1 -1 $-1 $51 1 $69 #
vertex $-1 -1 $-1 $36 1 $70 #
straight-curve $-1 -1 $-1 56.31995624530564015 114.5782370789614504 10.56552449314665409 8.660254037844389075 5.000000000000001776 0 I I #
DXID-attrib $-1 -1 $-1 $-1 $28 @10 ASM ENTITY @1 4 #
face $71 -1 $-1 $72 $73 $6 $-1 $74 forward single #
loop $-1 -1 $-1 $-1 $75 $28 #
plane-surface $-1 -1 $-1 60.56995624530561173 107.2170211467937406 5.565524493146644325 0 0 1 10 0 0 forward_v I I I I #
coedge $-1 -1 $-1 $57 $76 $49 $77 forward $29 0 $-1 #
coedge $-1 -1 $-1 $31 $35 $48 $77 reversed $19 0 $-1 #
coedge $-1 -1 $-1 $78 $38 $31 $51 reversed $64 0 $-1 #
edge $-1 -1 $-1 $79 -1.615243888023756513 $41 0.08475611197624383086 $50 $80 forward @7 unknown #
coedge $-1 -1 $-1 $81 $32 $82 $83 forward $21 0 $-1 #
coedge $-1 -1 $-1 $32 $81 $84 $85 reversed $21 0 $-1 #
coedge $-1 -1 $-1 $86 $87 $32 $55 forward $88 0 $-1 #
edge $-1 -1 $-1 $89 -23.84529946162074765 $90 -1.154700538379251684 $32 $91 forward @7 unknown #
coedge $-1 -1 $-1 $34 $33 $92 $93 reversed $14 0 $-1 #
coedge $-1 -1 $-1 $94 $48 $34 $58 reversed $29 0 $-1 #
edge $-1 -1 $-1 $95 0.1532762246573318166 $59 0.6532762246573328158 $34 $96 forward @7 unknown #
vertex $-1 -1 $-1 $36 0 $97 #
straight-curve $-1 -1 $-1 92.48300254079740057 56.32074076281725894 10.56552449314665409 -5 8.660254037844387298 0 I I #
coedge $-1 -1 $-1 $75 $92 $37 $62 forward $46 0 $-1 #
edge $-1 -1 $-1 $67 -0.2189368612056525332 $65 0.2810631387943469672 $61 $98 forward @7 unknown #
coedge $-1 -1 $-1 $38 $78 $75 $99 forward $64 0 $-1 #
loop $-1 -1 $-1 $100 $50 $101 #
vertex $-1 -1 $-1 $99 1 $102 #
straight-curve $-1 -1 $-1 53.88587806267268121 113.1729213849897064 7.782762246573326159 0 0 10 I I #
vertex $-1 -1 $-1 $93 1 $103 #
straight-curve $-1 -1 $-1 58.21600508159485798 115.6729213849897064 4.032762246573326159 0 0 -10 I I #
point $-1 -1 $-1 53.88587806267268121 113.1729213849897064 10.56552449314665409 #
point $-1 -1 $-1 58.21600508159487219 115.6729213849897064 10.56552449314665409 #
DXID-attrib $-1 -1 $-1 $-1 $45 @10 ASM ENTITY @1 5 #
face $104 -1 $-1 $105 $106 $6 $-1 $107 reversed single #
loop $-1 -1 $-1 $-1 $108 $45 #
plane-surface $-1 -1 $-1 -61.28889524367721719 107.1673723536987382 10.46922950135665609 0 0 -1 -10 0 0 forward_v I I I I #
coedge $-1 -1 $-1 $109 $61 $63 $99 reversed $46 0 $-1 #
coedge $-1 -1 $-1 $48 $94 $78 $110 reversed $29 0 $-1 #
edge $-1 -1 $-1 $79 -0.2810631387943445247 $59 0.2189368612056550034 $48 $111 forward @7 unknown #
coedge $-1 -1 $-1 $63 $50 $76 $110 forward $64 0 $-1 #
vertex $-1 -1 $-1 $110 0 $112 #
straight-curve $-1 -1 $-1 54.30965862255390419 112.4389119240154571 10.56552449314665409 -5 8.660254037844387298 0 I I #
coedge $113 -1 $-1 $53 $52 $114 $115 reversed $21 0 $-1 #
coedge $-1 -1 $-1 $116 $117 $52 $83 reversed $118 0 $-1 #
edge $-1 -1 $-1 $89 -1.125 $119 0.375 $52 $120 forward @7 unknown #
coedge $-1 -1 $-1 $121 $122 $53 $85 forward $123 0 $-1 #
edge $-1 -1 $-1 $90 -1.125 $124 0.375 $53 $125 forward @7 unknown #
coedge $-1 -1 $-1 $126 $54 $122 $127 reversed $88 0 $-1 #
coedge $-1 -1 $-1 $54 $128 $116 $129 forward $88 0 $-1 #
loop $-1 -1 $-1 $-1 $86 $130 #
vertex $-1 -1 $-1 $129 1 $131 #
vertex $-1 -1 $-1 $127 1 $132 #
straight-curve $-1 -1 $-1 -1.325716899480984291e-14 216.5060000000000002 15 -4.999999999999999112 8.660254037844385522 0 I I #
coedge $-1 -1 $-1 $61 $109 $56 $93 forward $46 0 $-1 #
edge $-1 -1 $-1 $95 5.403399491840507274 $67 7.103399491840507451 $56 $133 forward @7 unknown #
coedge $-1 -1 $-1 $76 $57 $109 $134 forward $29 0 $-1 #
vertex $-1 -1 $-1 $58 0 $135 #
straight-curve $-1 -1 $-1 66.71600508159487219 100.9504895206542585 4.032762246573326159 0 0 10 I I #
point $-1 -1 $-1 66.71600508159487219 100.9504895206542443 10.56552449314665409 #
straight-curve $-1 -1 $-1 56.31995624530564015 114.5782370789614504 5.565524493146643437 -8.660254037844389075 -5.000000000000001776 0 I I #
edge $-1 -1 $-1 $136 -1.865243888023755403 $65 -0.1652438880237551699 $63 $137 forward @7 unknown #
loop $-1 -1 $-1 $-1 $138 $101 #
face $139 -1 $-1 $140 $64 $6 $-1 $141 reversed single #
point $-1 -1 $-1 53.88587806267268121 113.1729213849897064 5.565524493146646989 #
point $-1 -1 $-1 58.21600508159487219 115.6729213849897064 5.565524493146646989 #
DXID-attrib $-1 -1 $-1 $-1 $72 @10 ASM ENTITY @1 6 #
face $142 -1 $-1 $143 $144 $6 $-1 $145 forward single #
loop $-1 -1 $-1 $-1 $146 $72 #
plane-surface $-1 -1 $-1 -57.03889524367723141 114.5285882858664337 7.969229501356647205 0.4999999999999995004 0.8660254037844390407 0 0 0 10 forward_v I I I I #
coedge $-1 -1 $-1 $147 $148 $149 $150 forward $73 0 $-1 #
coedge $-1 -1 $-1 $92 $75 $94 $134 reversed $46 0 $-1 #
edge $-1 -1 $-1 $79 -0.2782762246573328158 $136 0.2217237753426681834 $78 $151 forward @7 unknown #
straight-curve $-1 -1 $-1 64.81995624530561884 99.85580521462595982 10.56552449314665409 8.660254037844390851 4.999999999999994671 0 I I #
point $-1 -1 $-1 62.38587806267268121 98.4504895206542443 10.56552449314665409 #
ATTRIB_CUSTOM-attrib $-1 -1 $-1 $-1 $81 @17 sketch_attrib_def 1 1 3 @13 105 0 1 0 1 1 #
coedge $152 -1 $-1 $153 $154 $81 $115 forward $155 0 $-1 #
edge $-1 -1 $-1 $124 1.154700538379251684 $119 23.84529946162074765 $81 $156 forward @7 unknown #
coedge $-1 -1 $-1 $157 $82 $87 $129 reversed $118 0 $-1 #
coedge $-1 -1 $-1 $82 $157 $153 $158 reversed $118 0 $-1 #
loop $-1 -1 $-1 $-1 $116 $140 #
vertex $-1 -1 $-1 $83 1 $159 #
straight-curve $-1 -1 $-1 119.2264973081036885 9.999649053890388828 3.75 0 0 -10 I I #
coedge $-1 -1 $-1 $160 $84 $154 $161 forward $123 0 $-1 #
coedge $-1 -1 $-1 $84 $160 $86 $127 forward $123 0 $-1 #
loop $-1 -1 $-1 $-1 $122 $162 #
vertex $-1 -1 $-1 $85 1 $163 #
straight-curve $-1 -1 $-1 5.773502691896235106 206.5060000000000002 3.75 0 0 -10 I I #
coedge $-1 -1 $-1 $164 $86 $165 $166 forward $88 0 $-1 #
edge $-1 -1 $-1 $167 -0.5773502691896226224 $90 0.5773502691896279515 $86 $168 forward @7 unknown #
coedge $-1 -1 $-1 $87 $164 $169 $170 forward $88 0 $-1 #
edge $-1 -1 $-1 $171 -3.558012701892216967 $89 -2.403312163512961508 $87 $172 forward @7 unknown #
face $173 -1 $-1 $174 $175 $6 $-1 $176 forward single #
point $-1 -1 $-1 119.2264973081036885 9.999649053890387052 15 #
point $-1 -1 $-1 5.773502691896243988 206.5060000000000002 15 #
straight-curve $-1 -1 $-1 93.73300254079740057 54.15567725335618832 5.565524493146649654 -5 8.660254037844387298 0 I I #
edge $-1 -1 $-1 $95 -0.2189368612056550034 $136 0.2810631387943445247 $94 $177 forward @7 unknown #
point $-1 -1 $-1 66.71600508159487219 100.9504895206542443 5.565524493146644325 #
vertex $-1 -1 $-1 $99 0 $178 #
straight-curve $-1 -1 $-1 53.05965862255390419 114.6039754334765348 5.565524493146643437 -5 8.660254037844387298 0 I I #
coedge $-1 -1 $-1 $179 $180 $181 $182 forward $100 0 $-1 #
DXID-attrib $-1 -1 $-1 $-1 $101 @10 ASM ENTITY @2 21 #
face $183 -1 $-1 $130 $118 $6 $-1 $184 reversed single #
plane-surface $-1 -1 $-1 50.48343918243514139 119.0661183952088891 7.5 0.8660254037844387076 0.5 0 0 0 -10 forward_v I I I I #
DXID-attrib $-1 -1 $-1 $-1 $105 @10 ASM ENTITY @1 7 #
face $185 -1 $-1 $186 $187 $6 $-1 $188 reversed single #
loop $-1 -1 $-1 $-1 $189 $105 #
plane-surface $-1 -1 $-1 -61.28889524367721719 107.1673723536987382 5.469229501356639211 0 0 1 10 0 0 forward_v I I I I #
coedge $-1 -1 $-1 $190 $191 $148 $192 forward $106 0 $-1 #
coedge $-1 -1 $-1 $193 $108 $194 $195 reversed $73 0 $-1 #
coedge $-1 -1 $-1 $108 $193 $146 $192 reversed $73 0 $-1 #
coedge $-1 -1 $-1 $196 $197 $108 $150 reversed $198 0 $-1 #
edge $-1 -1 $-1 $199 0.620970663450099547 $200 2.320970663450098392 $149 $201 forward @7 unknown #
straight-curve $-1 -1 $-1 62.38587806267268121 98.4504895206542443 7.782762246573326159 0 0 -10 I I #
ATTRIB_CUSTOM-attrib $-1 -1 $-1 $-1 $114 @17 sketch_attrib_def 1 1 3 @13 105 0 1 0 1 1 #
coedge $-1 -1 $-1 $202 $114 $117 $158 forward $155 0 $-1 #
coedge $-1 -1 $-1 $114 $203 $121 $161 reversed $155 0 $-1 #
loop $-1 -1 $-1 $-1 $154 $174 #
straight-curve $-1 -1 $-1 -1.325716899480984291e-14 216.5060000000000002 0 4.999999999999999112 -8.660254037844385522 0 F 0 F 25 #
coedge $-1 -1 $-1 $117 $116 $204 $205 reversed $118 0 $-1 #
edge $-1 -1 $-1 $119 2.403312163512961508 $206 3.558012701892216967 $153 $207 forward @7 unknown #
point $-1 -1 $-1 119.2264973081036885 9.999649053890387052 0 #
coedge $-1 -1 $-1 $122 $121 $208 $209 forward $123 0 $-1 #
edge $-1 -1 $-1 $124 -0.5773502691896279515 $210 0.5773502691896226224 $154 $211 forward @7 unknown #
face $212 -1 $-1 $101 $123 $6 $-1 $213 forward single #
point $-1 -1 $-1 5.773502691896243988 206.5060000000000002 0 #
coedge $-1 -1 $-1 $128 $126 $214 $215 reversed $88 0 $-1 #
coedge $-1 -1 $-1 $208 $216 $126 $166 reversed $217 0 $-1 #
edge $-1 -1 $-1 $167 -23.84529946162075831 $218 -1.15470053837925235 $165 $219 forward @7 unknown #
vertex $-1 -1 $-1 $209 1 $220 #
straight-curve $-1 -1 $-1 -3.552713678800500929e-14 206.5060000000000002 15 10 0 0 I I #
coedge $-1 -1 $-1 $221 $204 $128 $170 reversed $222 0 $-1 #
edge $-1 -1 $-1 $223 -23.8452994616207441 $171 -1.154700538379255903 $169 $224 forward @7 unknown #
vertex $-1 -1 $-1 $129 0 $225 #
straight-curve $-1 -1 $-1 131.2430581256684832 30.81294292215403985 15 5.000000000000000888 8.660254037844385522 0 I I #
DXID-attrib $-1 -1 $-1 $-1 $130 @10 ASM ENTITY @2 23 #
face $226 -1 $-1 $227 $155 $6 $-1 $228 reversed single #
loop $-1 -1 $-1 $88 $229 $130 #
plane-surface $-1 -1 $-1 -3.552713678800500929e-14 108.2528245269451617 15 0 0 1 10 0 0 forward_v I I I I #
straight-curve $-1 -1 $-1 64.81995624530561884 99.85580521462595982 5.565524493146643437 -8.660254037844390851 -4.999999999999994671 0 I I #
point $-1 -1 $-1 62.38587806267268121 98.4504895206542443 5.565524493146644325 #
coedge $-1 -1 $-1 $230 $138 $231 $232 reversed $100 0 $-1 #
coedge $-1 -1 $-1 $138 $230 $233 $234 reversed $100 0 $-1 #
coedge $-1 -1 $-1 $235 $236 $138 $182 reversed $237 0 $-1 #
edge $-1 -1 $-1 $238 -5.838729601213542786 $239 10.50101636094206725 $138 $240 forward @7 unknown #
DXID-attrib $-1 -1 $-1 $-1 $140 @10 ASM ENTITY @2 22 #
plane-surface $-1 -1 $-1 130.5213702891814478 29.5629429221540434 7.5 -0.8660254037844385966 0.500000000000000111 0 0 0 10 forward_v I I I I #
DXID-attrib $-1 -1 $-1 $-1 $143 @10 ASM ENTITY @1 8 #
face $241 -1 $-1 $242 $243 $6 $-1 $244 forward single #
loop $-1 -1 $-1 $-1 $194 $143 #
plane-surface $-1 -1 $-1 -65.53889524367720298 99.80615642153098577 7.969229501356647205 -0.4999999999999995004 -0.8660254037844390407 0 0 0 -10 forward_v I I I I #
coedge $-1 -1 $-1 $245 $246 $247 $248 forward $144 0 $-1 #
coedge $-1 -1 $-1 $249 $146 $250 $251 reversed $106 0 $-1 #
coedge $-1 -1 $-1 $146 $249 $196 $252 reversed $106 0 $-1 #
edge $-1 -1 $-1 $199 -0.3408426427757055288 $253 0.1591573572242915846 $146 $254 forward @7 unknown #
coedge $-1 -1 $-1 $148 $147 $255 $256 forward $73 0 $-1 #
coedge $-1 -1 $-1 $257 $258 $147 $195 forward $187 0 $-1 #
edge $-1 -1 $-1 $259 -0.1591573572242923618 $200 0.3408426427757047517 $194 $260 forward @7 unknown #
coedge $-1 -1 $-1 $247 $149 $191 $252 forward $198 0 $-1 #
coedge $-1 -1 $-1 $149 $247 $257 $261 forward $198 0 $-1 #
loop $-1 -1 $-1 $262 $196 $263 #
vertex $-1 -1 $-1 $252 0 $264 #
vertex $-1 -1 $-1 $150 1 $265 #
straight-curve $-1 -1 $-1 -50.98225805305887803 118.2021387675145405 10.46922950135665076 -5.000000000000000888 -8.660254037844387298 0 I I #
coedge $266 -1 $-1 $267 $153 $268 $269 forward $155 0 $-1 #
coedge $270 -1 $-1 $154 $267 $271 $272 forward $155 0 $-1 #
coedge $-1 -1 $-1 $169 $268 $157 $205 forward $222 0 $-1 #
edge $-1 -1 $-1 $206 -0.375 $171 1.125 $204 $273 forward @7 unknown #
vertex $-1 -1 $-1 $158 1 $274 #
straight-curve $-1 -1 $-1 131.2430581256684832 30.81294292215403985 -5.551115123125782702e-16 -5.000000000000000888 -8.660254037844385522 0 I I #
coedge $-1 -1 $-1 $271 $165 $160 $209 reversed $217 0 $-1 #
edge $-1 -1 $-1 $210 -0.375 $167 1.125 $208 $275 forward @7 unknown #
vertex $-1 -1 $-1 $209 0 $276 #
straight-curve $-1 -1 $-1 -3.552713678800500929e-14 206.5060000000000002 0 -10 0 0 I I #
DXID-attrib $-1 -1 $-1 $-1 $162 @10 ASM ENTITY @2 20 #
plane-surface $-1 -1 $-1 -3.552713678800500929e-14 206.5060000000000002 7.5 0 1 0 0 0 10 forward_v I I I I #
coedge $-1 -1 $-1 $277 $278 $164 $215 forward $279 0 $-1 #
edge $-1 -1 $-1 $223 -3.485843918243524797 $218 -2.331143379864270671 $164 $280 forward @7 unknown #
coedge $-1 -1 $-1 $165 $271 $277 $281 reversed $217 0 $-1 #
loop $-1 -1 $-1 $-1 $271 $186 #
vertex $-1 -1 $-1 $215 1 $282 #
straight-curve $-1 -1 $-1 -125.0000000000000284 -0.0003509461096790918015 15 -5 -8.660254037844385522 -0 I I #
point $-1 -1 $-1 -5.773502691896261751 206.5060000000000002 15 #
coedge $-1 -1 $-1 $268 $169 $278 $283 reversed $222 0 $-1 #
loop $-1 -1 $-1 $-1 $169 $227 #
vertex $-1 -1 $-1 $283 1 $284 #
straight-curve $-1 -1 $-1 124.9999999999999716 -0.0003509461096484756126 15 10 1.224647011403845465e-15 0 I I #
point $-1 -1 $-1 113.4529946162074054 -0.0003509461096498896833 15 #
DXID-attrib $-1 -1 $-1 $-1 $174 @10 ASM ENTITY @2 24 #
face $285 -1 $-1 $286 $287 $6 $-1 $288 forward single #
plane-surface $-1 -1 $-1 -3.552713678800500929e-14 108.2528245269451617 0 0 0 1 10 0 0 forward_v I I I I #
coedge $-1 -1 $-1 $289 $290 $291 $292 forward $175 0 $-1 #
coedge $-1 -1 $-1 $180 $179 $289 $293 reversed $100 0 $-1 #
coedge $-1 -1 $-1 $294 $295 $179 $232 forward $296 0 $-1 #
edge $-1 -1 $-1 $297 -0.75 $239 0.5 $231 $298 forward @7 unknown #
coedge $-1 -1 $-1 $291 $299 $180 $234 forward $300 0 $-1 #
edge $-1 -1 $-1 $238 -0.5 $301 0.75 $180 $302 forward @7 unknown #
coedge $-1 -1 $-1 $303 $181 $299 $304 reversed $237 0 $-1 #
coedge $-1 -1 $-1 $181 $305 $294 $306 reversed $237 0 $-1 #
loop $-1 -1 $-1 $-1 $181 $307 #
vertex $-1 -1 $-1 $234 0 $308 #
vertex $-1 -1 $-1 $182 1 $309 #
straight-curve $-1 -1 $-1 46.5141560817564681 125.9411183952088891 2.5 5 -8.660254037844387298 0 I I #
DXID-attrib $-1 -1 $-1 $-1 $186 @10 ASM ENTITY @1 9 #
face $310 -1 $-1 $311 $312 $6 $-1 $313 forward single #
loop $-1 -1 $-1 $217 $255 $186 #
plane-surface $-1 -1 $-1 0 216.5060000000000002 0 -0.8660254037844387076 0.500000000000000111 0 -5.000000000000000888 -8.660254037844387298 -0 forward_v I I I I #
coedge $-1 -1 $-1 $314 $189 $249 $315 reversed $144 0 $-1 #
coedge $-1 -1 $-1 $189 $314 $316 $317 reversed $144 0 $-1 #
coedge $-1 -1 $-1 $197 $196 $189 $248 reversed $198 0 $-1 #
edge $-1 -1 $-1 $318 -2.320970663450098392 $319 -0.620970663450099547 $247 $320 forward @7 unknown #
coedge $-1 -1 $-1 $191 $190 $245 $315 forward $106 0 $-1 #
coedge $-1 -1 $-1 $255 $321 $190 $251 forward $243 0 $-1 #
edge $-1 -1 $-1 $322 0.1484614750678315831 $253 0.6484614750678328043 $250 $323 forward @7 unknown #
edge $-1 -1 $-1 $199 -0.2734614750678328043 $319 0.2265385249321684169 $196 $324 forward @7 unknown #
vertex $-1 -1 $-1 $256 1 $325 #
straight-curve $-1 -1 $-1 -57.03889524367723851 114.5285882858664337 10.46922950135665609 -8.660254037844390851 4.999999999999994671 0 I I #
coedge $-1 -1 $-1 $326 $250 $193 $256 reversed $243 0 $-1 #
edge $-1 -1 $-1 $259 -7.116723838923153522 $253 -5.416723838923154233 $255 $327 forward @7 unknown #
coedge $-1 -1 $-1 $316 $194 $197 $261 reversed $187 0 $-1 #
coedge $-1 -1 $-1 $194 $316 $326 $328 reversed $187 0 $-1 #
vertex $-1 -1 $-1 $328 0 $329 #
straight-curve $-1 -1 $-1 -65.53889524367721719 99.80615642153098577 10.46922950135665609 8.660254037844390851 -4.999999999999994671 0 I I #
edge $-1 -1 $-1 $318 -0.2265385249321679728 $200 0.2734614750678332484 $197 $330 forward @7 unknown #
loop $-1 -1 $-1 $-1 $331 $263 #
face $332 -1 $-1 $333 $198 $6 $-1 $334 reversed single #
point $-1 -1 $-1 -54.08711137030937977 112.8243750719879159 10.46922950135665076 #
point $-1 -1 $-1 -62.58711137030936555 98.101943207652468 10.46922950135665609 #
ATTRIB_CUSTOM-attrib $-1 -1 $-1 $-1 $202 @17 sketch_attrib_def 1 1 3 @13 107 0 1 0 1 1 #
coedge $-1 -1 $-1 $203 $202 $335 $336 reversed $155 0 $-1 #
coedge $337 -1 $-1 $204 $221 $202 $269 reversed $222 0 $-1 #
edge $-1 -1 $-1 $206 1.154700538379255903 $338 23.8452994616207441 $268 $339 forward @7 unknown #
ATTRIB_CUSTOM-attrib $-1 -1 $-1 $-1 $203 @17 sketch_attrib_def 1 1 3 @13 108 0 1 0 1 1 #
coedge $340 -1 $-1 $216 $208 $203 $272 reversed $217 0 $-1 #
edge $-1 -1 $-1 $341 1.15470053837925235 $210 23.84529946162075831 $271 $342 forward @7 unknown #
straight-curve $-1 -1 $-1 113.4529946162074054 -0.0003509461096484756126 3.75 0 0 10 I I #
point $-1 -1 $-1 113.4529946162074054 -0.0003509461096498896833 0 #
straight-curve $-1 -1 $-1 -5.773502691896257311 206.5060000000000002 3.75 0 0 10 I I #
point $-1 -1 $-1 -5.773502691896261751 206.5060000000000002 0 #
coedge $-1 -1 $-1 $335 $214 $216 $281 forward $279 0 $-1 #
coedge $-1 -1 $-1 $214 $335 $221 $283 forward $279 0 $-1 #
loop $-1 -1 $-1 $-1 $214 $286 #
straight-curve $-1 -1 $-1 -130.882214207425136 30.18794292215407893 15 -4.999999999999998224 8.660254037844389075 0 I I #
edge $-1 -1 $-1 $218 -1.125 $341 0.375 $216 $343 forward @7 unknown #
point $-1 -1 $-1 -119.2264973081037738 9.999649053890323103 15 #
edge $-1 -1 $-1 $338 -0.375 $223 1.125 $221 $344 forward @7 unknown #
point $-1 -1 $-1 -113.4529946162074765 -0.0003509461096776777308 15 #
DXID-attrib $-1 -1 $-1 $-1 $227 @10 ASM ENTITY @2 25 #
face $345 -1 $-1 $-1 $279 $6 $-1 $346 forward single #
loop $-1 -1 $-1 $222 $347 $227 #
plane-surface $-1 -1 $-1 -125.0000000000000284 -0.0003509461096790918015 0 1.224647011403845366e-16 -1 0 10 1.224647011403845465e-15 0 forward_v I I I I #
coedge $-1 -1 $-1 $348 $229 $230 $293 forward $175 0 $-1 #
coedge $-1 -1 $-1 $229 $349 $350 $351 forward $175 0 $-1 #
coedge $-1 -1 $-1 $352 $233 $229 $292 reversed $300 0 $-1 #
edge $-1 -1 $-1 $353 -1.804219591217579577 $301 1.65988202392017592 $229 $354 forward @7 unknown #
edge $-1 -1 $-1 $301 -5.838729601213542786 $297 10.50101636094206725 $289 $355 forward @7 unknown #
coedge $-1 -1 $-1 $356 $231 $236 $306 forward $296 0 $-1 #
coedge $-1 -1 $-1 $231 $356 $348 $357 reversed $296 0 $-1 #
loop $-1 -1 $-1 $-1 $294 $358 #
vertex $-1 -1 $-1 $357 0 $359 #
straight-curve $-1 -1 $-1 99.01923788646678304 34.99964905389038705 7.5 0 0 -10 I I #
coedge $-1 -1 $-1 $233 $352 $235 $304 forward $300 0 $-1 #
loop $-1 -1 $-1 $-1 $299 $333 #
vertex $-1 -1 $-1 $234 1 $360 #
straight-curve $-1 -1 $-1 17.32050807568875328 176.5060000000000002 7.5 0 0 10 I I #
coedge $-1 -1 $-1 $361 $235 $331 $362 reversed $237 0 $-1 #
edge $-1 -1 $-1 $363 -1.804219591217579355 $238 1.65988202392017592 $299 $364 forward @7 unknown #
coedge $-1 -1 $-1 $236 $361 $365 $366 reversed $237 0 $-1 #
edge $-1 -1 $-1 $239 1.501202367904172608 $367 4.965303983041931879 $294 $368 forward @7 unknown #
face $369 -1 $-1 $358 $237 $6 $-1 $370 reversed single #
point $-1 -1 $-1 17.32050807568874617 176.5060000000000002 2.5 #
point $-1 -1 $-1 99.01923788646678304 34.99964905389038705 2.5 #
DXID-attrib $-1 -1 $-1 $-1 $242 @10 ASM ENTITY @2 10 #
face $371 -1 $-1 $372 $373 $6 $-1 $374 reversed single #
loop $-1 -1 $-1 $-1 $375 $242 #
plane-surface $-1 -1 $-1 -0.1180817606204698222 3.491983060907379866 9.999999999999998224 0 0 -1 -10 0 0 forward_v I I I I #
coedge $-1 -1 $-1 $246 $245 $321 $376 forward $144 0 $-1 #
edge $-1 -1 $-1 $322 -0.1591573572242915846 $319 0.3408426427757055288 $249 $377 forward @7 unknown #
coedge $-1 -1 $-1 $258 $257 $246 $317 forward $187 0 $-1 #
edge $-1 -1 $-1 $318 -0.3408426427757047517 $378 0.1591573572242923618 $316 $379 forward @7 unknown #
vertex $-1 -1 $-1 $261 0 $380 #
vertex $-1 -1 $-1 $248 1 $381 #
straight-curve $-1 -1 $-1 -50.98225805305887803 118.2021387675145405 5.469229501356643652 5.000000000000000888 8.660254037844387298 0 I I #
coedge $-1 -1 $-1 $250 $326 $314 $376 reversed $243 0 $-1 #
vertex $-1 -1 $-1 $251 0 $382 #
straight-curve $-1 -1 $-1 -58.41723838923154943 115.3243750719878733 3.984614750678323603 0 0 10 I I #
straight-curve $-1 -1 $-1 -54.08711137030937266 112.8243750719879159 7.734614750678323603 0 0 -10 I I #
point $-1 -1 $-1 -58.41723838923154943 115.3243750719879017 10.46922950135665076 #
coedge $-1 -1 $-1 $321 $255 $258 $328 forward $243 0 $-1 #
straight-curve $-1 -1 $-1 -31.33361919461577116 162.2345795699100961 10.46922950135665076 5.000000000000000888 8.660254037844387298 0 I I #
edge $-1 -1 $-1 $259 -0.6484614750678332484 $378 -0.1484614750678320272 $326 $383 forward @7 unknown #
point $-1 -1 $-1 -66.91723838923154233 100.6019432076524538 10.46922950135665609 #
straight-curve $-1 -1 $-1 -62.58711137030936555 98.10194320765248222 7.734614750678323603 0 0 10 I I #
coedge $-1 -1 $-1 $384 $385 $303 $362 forward $262 0 $-1 #
DXID-attrib $-1 -1 $-1 $-1 $263 @10 ASM ENTITY @2 18 #
face $386 -1 $-1 $162 $300 $6 $-1 $387 reversed single #
plane-surface $-1 -1 $-1 -43.62740473580839051 130.9411183952088891 7.5 -0.8660254037844387076 0.500000000000000111 0 0 0 10 forward_v I I I I #
coedge $-1 -1 $-1 $278 $277 $267 $336 forward $279 0 $-1 #
edge $-1 -1 $-1 $341 2.331143379864270671 $338 3.485843918243524797 $267 $388 forward @7 unknown #
ATTRIB_CUSTOM-attrib $-1 -1 $-1 $-1 $268 @17 sketch_attrib_def 1 1 3 @13 107 0 1 0 1 1 #
vertex $-1 -1 $-1 $336 1 $389 #
straight-curve $-1 -1 $-1 124.9999999999999716 -0.0003509461096484756126 0 -10 -1.224647011403845465e-15 0 F 0 F 25 #
ATTRIB_CUSTOM-attrib $-1 -1 $-1 $-1 $271 @17 sketch_attrib_def 1 1 3 @13 108 0 1 0 1 1 #
vertex $-1 -1 $-1 $336 0 $390 #
straight-curve $-1 -1 $-1 -125.0000000000000284 -0.0003509461096790918015 0 5 8.660254037844385522 0 F 0 F 25.00000000000000355 #
straight-curve $-1 -1 $-1 -119.226497308103788 9.999649053890324879 3.75 0 0 -10 I I #
straight-curve $-1 -1 $-1 -113.4529946162075333 -0.0003509461096795618573 3.75 0 0 10 I I #
DXID-attrib $-1 -1 $-1 $-1 $286 @10 ASM ENTITY @2 26 #
plane-surface $-1 -1 $-1 -129.7996824526945829 28.31294292215408959 7.5 -0.8660254037844388186 -0.499999999999999778 0 0 0 10 forward_v I I I I #
coedge $-1 -1 $-1 $391 $392 $393 $394 reversed $287 0 $-1 #
coedge $-1 -1 $-1 $395 $289 $295 $357 forward $175 0 $-1 #
coedge $-1 -1 $-1 $290 $395 $396 $397 forward $175 0 $-1 #
coedge $-1 -1 $-1 $385 $384 $290 $351 reversed $262 0 $-1 #
edge $-1 -1 $-1 $398 -11.18661980560475655 $353 5.153126156550862369 $290 $399 forward @7 unknown #
coedge $-1 -1 $-1 $299 $291 $384 $400 reversed $300 0 $-1 #
vertex $-1 -1 $-1 $400 1 $401 #
straight-curve $-1 -1 $-1 0.72168783648698831 176.5060000000000002 15 10 0 0 I I #
straight-curve $-1 -1 $-1 46.5141560817564681 125.9411183952088891 15 5 -8.660254037844387298 0 I I #
coedge $-1 -1 $-1 $295 $294 $402 $403 reversed $296 0 $-1 #
edge $-1 -1 $-1 $297 1.501202367904172608 $404 4.965303983041931879 $348 $405 forward @7 unknown #
face $406 -1 $-1 $407 $296 $6 $-1 $408 reversed single #
point $-1 -1 $-1 99.01923788646678304 34.99964905389038705 15 #
point $-1 -1 $-1 17.32050807568874617 176.5060000000000002 15 #
coedge $-1 -1 $-1 $305 $303 $409 $410 reversed $237 0 $-1 #
edge $-1 -1 $-1 $411 -11.18661980560475655 $363 5.153126156550862369 $331 $412 forward @7 unknown #
vertex $-1 -1 $-1 $400 0 $413 #
straight-curve $-1 -1 $-1 0.72168783648698831 176.5060000000000002 2.5 10 0 0 I I #
coedge $-1 -1 $-1 $414 $402 $305 $366 forward $415 0 $-1 #
edge $-1 -1 $-1 $367 -7.736860279185582279 $416 8.602885682970029535 $365 $417 forward @7 unknown #
vertex $-1 -1 $-1 $366 0 $418 #
straight-curve $-1 -1 $-1 106.5252497259876634 48.0004429221540434 2.5 -5.000000000000000888 -8.660254037844385522 -0 I I #
DXID-attrib $-1 -1 $-1 $-1 $307 @10 ASM ENTITY @2 15 #
plane-surface $-1 -1 $-1 -3.552713678800500929e-14 108.2528245269451617 2.5 0 0 -1 -10 0 0 forward_v I I I I #
DXID-attrib $-1 -1 $-1 $-1 $311 @10 ASM ENTITY @2 11 #
face $419 -1 $-1 $420 $421 $6 $-1 $422 forward single #
loop $-1 -1 $-1 $-1 $423 $311 #
plane-surface $-1 -1 $-1 8.381918239379530178 3.491983060907379866 7.5 1 0 0 0 0 -10 forward_v I I I I #
coedge $-1 -1 $-1 $424 $425 $426 $427 forward $312 0 $-1 #
edge $-1 -1 $-1 $322 5.416723838923154233 $378 7.116723838923153522 $321 $428 forward @7 unknown #
straight-curve $-1 -1 $-1 -57.03889524367723851 114.5285882858664337 5.469229501356638323 8.660254037844390851 -4.999999999999994671 0 I I #
vertex $-1 -1 $-1 $376 1 $429 #
straight-curve $-1 -1 $-1 -65.53889524367721719 99.80615642153098577 5.469229501356638323 -8.660254037844390851 4.999999999999994671 0 I I #
point $-1 -1 $-1 -62.58711137030936555 98.101943207652468 5.469229501356643652 #
point $-1 -1 $-1 -54.08711137030937977 112.8243750719879159 5.469229501356639211 #
point $-1 -1 $-1 -58.41723838923154943 115.3243750719879017 5.469229501356639211 #
straight-curve $-1 -1 $-1 -66.91723838923154233 100.6019432076524538 3.984614750678323603 0 0 -10 I I #
coedge $-1 -1 $-1 $350 $331 $352 $400 forward $262 0 $-1 #
coedge $-1 -1 $-1 $331 $350 $430 $431 reversed $262 0 $-1 #
DXID-attrib $-1 -1 $-1 $-1 $333 @10 ASM ENTITY @2 19 #
plane-surface $-1 -1 $-1 1.443375672974012147 176.5060000000000002 7.5 0 1 0 0 0 10 forward_v I I I I #
straight-curve $-1 -1 $-1 -130.882214207425136 30.18794292215407893 0 4.999999999999998224 -8.660254037844389075 0 I I #
point $-1 -1 $-1 -113.4529946162074765 -0.0003509461096776777308 0 #
point $-1 -1 $-1 -119.2264973081037738 9.999649053890323103 0 #
coedge $-1 -1 $-1 $432 $347 $433 $434 forward $287 0 $-1 #
coedge $-1 -1 $-1 $347 $432 $435 $436 forward $287 0 $-1 #
coedge $-1 -1 $-1 $437 $438 $347 $394 forward $421 0 $-1 #
edge $-1 -1 $-1 $439 5.394095911968978641 $440 7.09409591196897793 $347 $441 forward @7 unknown #
coedge $-1 -1 $-1 $349 $348 $442 $443 forward $175 0 $-1 #
coedge $-1 -1 $-1 $444 $430 $349 $397 reversed $445 0 $-1 #
edge $-1 -1 $-1 $446 -4.640544456622772707 $398 -1.176442841485017432 $349 $447 forward @7 unknown #
vertex $-1 -1 $-1 $351 0 $448 #
straight-curve $-1 -1 $-1 -43.08613885844312108 131.8786183952088891 15 5.000000000000000888 8.660254037844387298 0 I I #
edge $-1 -1 $-1 $363 -0.5 $353 0.75 $352 $449 forward @7 unknown #
point $-1 -1 $-1 -17.32050807568880657 176.5060000000000002 15 #
coedge $-1 -1 $-1 $365 $442 $356 $403 forward $415 0 $-1 #
edge $-1 -1 $-1 $404 -0.75 $367 0.5 $402 $450 forward @7 unknown #
vertex $-1 -1 $-1 $443 0 $451 #
straight-curve $-1 -1 $-1 106.5252497259876634 48.0004429221540434 15 -5.000000000000000888 -8.660254037844385522 0 I I #
DXID-attrib $-1 -1 $-1 $-1 $358 @10 ASM ENTITY @2 16 #
face $452 -1 $-1 $263 $445 $6 $-1 $453 reversed single #
plane-surface $-1 -1 $-1 107.0665156033529399 48.93794292215405051 7.5 0.8660254037844385966 -0.500000000000000111 0 0 0 -10 forward_v I I I I #
coedge $-1 -1 $-1 $430 $444 $361 $410 forward $445 0 $-1 #
edge $-1 -1 $-1 $416 -4.640544456622771818 $411 -1.176442841485017432 $409 $454 forward @7 unknown #
vertex $-1 -1 $-1 $431 0 $455 #
straight-curve $-1 -1 $-1 -43.08613885844310687 131.8786183952088891 2.5 5.000000000000000888 8.660254037844387298 0 I I #
point $-1 -1 $-1 -17.32050807568880657 176.5060000000000002 2.5 #
coedge $-1 -1 $-1 $442 $365 $444 $456 reversed $415 0 $-1 #
loop $-1 -1 $-1 $457 $365 $458 #
vertex $-1 -1 $-1 $410 0 $459 #
straight-curve $-1 -1 $-1 4.330127018922164339 4.999649053890333761 2.5 -10 -1.224647011403845465e-15 -0 I I #
point $-1 -1 $-1 81.69872981077799068 4.999649053890351524 2.5 #
DXID-attrib $-1 -1 $-1 $-1 $372 @10 ASM ENTITY @2 12 #
face $460 -1 $-1 $458 $461 $6 $-1 $462 reversed single #
loop $-1 -1 $-1 $-1 $463 $372 #
plane-surface $-1 -1 $-1 -0.1180817606204698222 3.491983060907379866 5 0 0 1 10 0 0 forward_v I I I I #
coedge $-1 -1 $-1 $464 $435 $424 $465 forward $373 0 $-1 #
coedge $-1 -1 $-1 $466 $375 $423 $465 reversed $312 0 $-1 #
coedge $-1 -1 $-1 $375 $466 $467 $468 reversed $312 0 $-1 #
coedge $-1 -1 $-1 $469 $470 $375 $427 reversed $457 0 $-1 #
edge $-1 -1 $-1 $471 -1.288916789923240991 $472 0.4110832100767589092 $426 $473 forward @7 unknown #
straight-curve $-1 -1 $-1 -31.33361919461577116 162.2345795699100961 5.469229501356643652 -5.000000000000000888 -8.660254037844387298 0 I I #
point $-1 -1 $-1 -66.91723838923154233 100.6019432076524538 5.469229501356643652 #
coedge $-1 -1 $-1 $396 $409 $385 $431 forward $445 0 $-1 #
edge $-1 -1 $-1 $411 -0.5 $398 0.75 $430 $474 forward @7 unknown #
coedge $-1 -1 $-1 $392 $391 $466 $475 reversed $287 0 $-1 #
coedge $-1 -1 $-1 $476 $467 $391 $434 reversed $461 0 $-1 #
edge $-1 -1 $-1 $439 0.125 $477 0.624999999999999889 $391 $478 forward @7 unknown #
coedge $-1 -1 $-1 $423 $479 $392 $436 reversed $373 0 $-1 #
edge $-1 -1 $-1 $480 -0.624999999999999889 $440 -0.125 $392 $481 forward @7 unknown #
coedge $-1 -1 $-1 $463 $393 $479 $482 reversed $421 0 $-1 #
coedge $-1 -1 $-1 $393 $463 $476 $483 reversed $421 0 $-1 #
vertex $-1 -1 $-1 $434 0 $484 #
vertex $-1 -1 $-1 $394 1 $485 #
straight-curve $-1 -1 $-1 -62.55904088031024912 -0.0003509461096712351846 5 10 1.224647011403845465e-15 0 I I #
coedge $-1 -1 $-1 $402 $414 $395 $443 reversed $415 0 $-1 #
edge $-1 -1 $-1 $404 -7.736860279185582279 $446 8.602885682970029535 $395 $486 forward @7 unknown #
coedge $-1 -1 $-1 $409 $396 $414 $456 forward $445 0 $-1 #
loop $-1 -1 $-1 $-1 $409 $407 #
vertex $-1 -1 $-1 $397 0 $487 #
straight-curve $-1 -1 $-1 -104.9014520938919759 45.18794292215407182 15 -4.999999999999998224 8.660254037844389075 0 I I #
point $-1 -1 $-1 -99.01923788646689673 34.9996490538903231 15 #
straight-curve $-1 -1 $-1 -17.32050807568880302 176.5060000000000002 7.5 0 0 10 I I #
straight-curve $-1 -1 $-1 81.69872981077800489 4.999649053890341754 7.5 0 0 -10 I I #
point $-1 -1 $-1 81.69872981077799068 4.999649053890343531 15 #
DXID-attrib $-1 -1 $-1 $-1 $407 @10 ASM ENTITY @2 17 #
plane-surface $-1 -1 $-1 -103.8189203391614228 43.31294292215406472 7.5 -0.8660254037844388186 -0.499999999999999778 0 0 0 10 forward_v I I I I #
straight-curve $-1 -1 $-1 -104.9014520938919759 45.18794292215406472 2.5 -4.999999999999998224 8.660254037844389075 0 I I #
point $-1 -1 $-1 -99.01923788646689673 34.999649053890316 2.5 #
edge $-1 -1 $-1 $446 -0.75 $416 0.5 $444 $488 forward @7 unknown #
loop $-1 -1 $-1 $-1 $470 $458 #
face $489 -1 $-1 $307 $415 $6 $-1 $490 reversed single #
point $-1 -1 $-1 -81.69872981077813279 4.999649053890315997 2.5 #
DXID-attrib $-1 -1 $-1 $-1 $420 @10 ASM ENTITY @2 13 #
loop $-1 -1 $-1 $-1 $467 $420 #
plane-surface $-1 -1 $-1 -8.618081760620469822 3.491983060907379866 7.5 -1 0 0 0 0 10 forward_v I I I I #
coedge $-1 -1 $-1 $438 $437 $491 $492 forward $421 0 $-1 #
coedge $-1 -1 $-1 $479 $423 $470 $493 reversed $373 0 $-1 #
edge $-1 -1 $-1 $480 -0.3492334007017042774 $472 0.150766599298295334 $423 $494 forward @7 unknown #
coedge $-1 -1 $-1 $425 $424 $432 $475 forward $312 0 $-1 #
coedge $-1 -1 $-1 $433 $495 $425 $468 forward $461 0 $-1 #
edge $-1 -1 $-1 $471 -0.150766599298295223 $477 0.3492334007017044439 $467 $496 forward @7 unknown #
coedge $-1 -1 $-1 $491 $426 $495 $497 forward $457 0 $-1 #
coedge $-1 -1 $-1 $426 $491 $464 $493 forward $457 0 $-1 #
vertex $-1 -1 $-1 $497 0 $498 #
vertex $-1 -1 $-1 $427 1 $499 #
straight-curve $-1 -1 $-1 4.271086138611940974 4.999649053890332873 9.999999999999998224 10 1.224647011403845465e-15 0 I I #
straight-curve $-1 -1 $-1 -99.0192378864668683 34.99964905389034442 7.5 0 0 10 I I #
edge $-1 -1 $-1 $480 -7.09409591196897793 $477 -5.394095911968978641 $432 $500 forward @7 unknown #
coedge $-1 -1 $-1 $495 $433 $438 $483 forward $461 0 $-1 #
vertex $-1 -1 $-1 $475 1 $501 #
straight-curve $-1 -1 $-1 -8.61808176062046627 -0.0003509461096648514022 3.75 0 0 10 I I #
coedge $-1 -1 $-1 $435 $464 $437 $482 forward $373 0 $-1 #
vertex $-1 -1 $-1 $436 0 $502 #
straight-curve $-1 -1 $-1 8.381918239379526625 -0.0003509461096626309562 3.75 0 0 -10 I I #
edge $-1 -1 $-1 $503 -0.150766599298295334 $440 0.3492334007017042774 $479 $504 forward @7 unknown #
edge $-1 -1 $-1 $439 -0.3492334007017044439 $505 0.150766599298295223 $476 $506 forward @7 unknown #
point $-1 -1 $-1 -8.618081760620469822 -0.0003509461096645738465 5 #
point $-1 -1 $-1 8.381918239379530178 -0.000350946109662908512 5 #
straight-curve $-1 -1 $-1 4.330127018922164339 4.999649053890333761 15 -10 -1.224647011403845465e-15 0 I I #
point $-1 -1 $-1 -81.69872981077813279 4.999649053890315997 15 #
straight-curve $-1 -1 $-1 -81.69872981077813279 4.999649053890323103 7.5 0 0 -10 I I #
DXID-attrib $-1 -1 $-1 $-1 $458 @10 ASM ENTITY @2 14 #
plane-surface $-1 -1 $-1 8.660254037844351771 4.999649053890333761 7.5 1.224647011403845366e-16 -1 0 0 0 -10 forward_v I I I I #
coedge $-1 -1 $-1 $470 $469 $463 $492 reversed $457 0 $-1 #
edge $-1 -1 $-1 $503 -0.4110832100767589092 $505 1.288916789923241213 $491 $507 forward @7 unknown #
edge $-1 -1 $-1 $503 -0.25 $472 0.249999999999999889 $470 $508 forward @7 unknown #
straight-curve $-1 -1 $-1 8.381918239379530178 3.491983060907379866 10 0 10 0 I I #
coedge $-1 -1 $-1 $467 $476 $469 $497 reversed $461 0 $-1 #
straight-curve $-1 -1 $-1 -8.618081760620469822 3.491983060907379866 10 -0 -10 -0 I I #
edge $-1 -1 $-1 $471 -0.249999999999999889 $505 0.25 $469 $509 forward @7 unknown #
point $-1 -1 $-1 -8.618081760620469822 4.999649053890331984 9.999999999999998224 #
point $-1 -1 $-1 8.381918239379530178 4.999649053890332873 9.999999999999998224 #
straight-curve $-1 -1 $-1 -62.55904088031024912 -0.0003509461096712351846 9.999999999999998224 -10 -1.224647011403845465e-15 0 I I #
point $-1 -1 $-1 -8.618081760620469822 -0.0003509461096645738465 9.999999999999998224 #
point $-1 -1 $-1 8.381918239379530178 -0.000350946109662908512 9.999999999999998224 #
vertex $-1 -1 $-1 $493 0 $510 #
straight-curve $-1 -1 $-1 8.381918239379530178 3.491983060907379866 5 0 -10 0 I I #
vertex $-1 -1 $-1 $492 1 $511 #
straight-curve $-1 -1 $-1 -8.618081760620469822 3.491983060907379866 5 0 10 0 I I #
straight-curve $-1 -1 $-1 4.271086138611940974 4.999649053890332873 5 -10 -1.224647011403845465e-15 0 I I #
straight-curve $-1 -1 $-1 8.381918239379530178 4.999649053890333761 7.5 0 0 10 I I #
straight-curve $-1 -1 $-1 -8.618081760620469822 4.999649053890331984 7.5 -0 -0 -10 I I #
point $-1 -1 $-1 8.381918239379530178 4.999649053890332873 5 #
point $-1 -1 $-1 -8.618081760620469822 4.999649053890331984 5 #
End-of-ASM-data 