# WaveFront *.obj file (generated by Autodesk ATF)

mtllib 3886f250-661c-456c-a85c-d2811f640f19.mtl

g Body5

v 58.216005 115.672921 10.565524
v 53.885878 113.172921 10.565524
v 53.885878 113.172921 5.565524
v 58.216005 115.672921 5.565524
v 66.716005 100.950490 10.565524
v 66.716005 100.950490 5.565524
v 5.773503 206.506000 15.000000
v 119.226497 9.999649 15.000000
v 119.226497 9.999649 0.000000
v 5.773503 206.506000 0.000000
v 62.385878 98.450490 10.565524
v 62.385878 98.450490 5.565524
v -54.087111 112.824375 10.469230
v -62.587111 98.101943 10.469230
v -66.917238 100.601943 10.469230
v -58.417238 115.324375 10.469230
v -58.417238 115.324375 5.469230
v -54.087111 112.824375 5.469230
v -62.587111 98.101943 5.469230
v -66.917238 100.601943 5.469230
v -5.773503 206.506000 0.000000
v -119.226497 9.999649 0.000000
v -119.226497 9.999649 15.000000
v -5.773503 206.506000 15.000000
v -8.618082 4.999649 10.000000
v 8.381918 4.999649 10.000000
v 8.381918 -0.000351 10.000000
v -8.618082 -0.000351 10.000000
v 8.381918 4.999649 5.000000
v 8.381918 -0.000351 5.000000
v -8.618082 4.999649 5.000000
v -8.618082 -0.000351 5.000000
v 81.698730 4.999649 2.500000
v -81.698730 4.999649 2.500000
v -81.698730 4.999649 15.000000
v 81.698730 4.999649 15.000000
v 99.019238 34.999649 2.500000
v 17.320508 176.506000 2.500000
v -17.320508 176.506000 2.500000
v -99.019238 34.999649 2.500000
v 99.019238 34.999649 15.000000
v -99.019238 34.999649 15.000000
v -17.320508 176.506000 15.000000
v 17.320508 176.506000 15.000000
v 113.452995 -0.000351 15.000000
v 113.452995 -0.000351 0.000000
v -113.452995 -0.000351 15.000000
v -113.452995 -0.000351 0.000000
vt -0.250000 -0.281063 0.000000
vt 0.250000 -0.281063 0.000000
vt -0.250000 0.218937 0.000000
vt 0.250000 0.218937 0.000000
vt 13.356799 1.056552 0.000000
vt 23.845299 1.500000 0.000000
vt 11.656799 1.056552 0.000000
vt 1.154701 1.500000 0.000000
vt 11.656799 0.556552 0.000000
vt 1.154701 0.000000 0.000000
vt 23.845299 0.000000 0.000000
vt 13.356799 0.556552 0.000000
vt 0.668408 0.595590 0.000000
vt 0.235395 0.845590 0.000000
vt -0.181592 -0.876653 0.000000
vt -0.614605 -0.626653 0.000000
vt 0.250000 0.218937 0.000000
vt -0.250000 0.218937 0.000000
vt 0.250000 -0.281063 0.000000
vt -0.250000 -0.281063 0.000000
vt -0.668408 0.595590 0.000000
vt 0.181592 -0.876653 0.000000
vt -0.235395 0.845590 0.000000
vt 0.614605 -0.626653 0.000000
vt -0.720178 0.565700 0.000000
vt 0.129822 -0.906543 0.000000
vt -0.287166 0.815700 0.000000
vt 0.562834 -0.656543 0.000000
vt -0.250000 -0.159157 0.000000
vt 0.250000 -0.159157 0.000000
vt -0.250000 0.340843 0.000000
vt 0.250000 0.340843 0.000000
vt 0.720178 0.565700 0.000000
vt 0.287166 0.815700 0.000000
vt -0.129822 -0.906543 0.000000
vt -0.562834 -0.656543 0.000000
vt 0.250000 0.340843 0.000000
vt -0.250000 0.340843 0.000000
vt 0.250000 -0.159157 0.000000
vt -0.250000 -0.159157 0.000000
vt 13.383448 1.046923 0.000000
vt 23.845299 1.500000 0.000000
vt 11.683448 1.046923 0.000000
vt 1.154701 1.500000 0.000000
vt 11.683448 0.546923 0.000000
vt 1.154701 0.000000 0.000000
vt 23.845299 0.000000 0.000000
vt 13.383448 0.546923 0.000000
vt 0.850000 0.150767 0.000000
vt -0.850000 0.150767 0.000000
vt 0.850000 -0.349233 0.000000
vt -0.850000 -0.349233 0.000000
vt 0.250000 0.150767 0.000000
vt -0.250000 0.150767 0.000000
vt 0.250000 -0.349233 0.000000
vt -0.250000 -0.349233 0.000000
vt 0.850000 0.150767 0.000000
vt -0.850000 0.150767 0.000000
vt 0.850000 -0.349233 0.000000
vt -0.850000 -0.349233 0.000000
vt -0.250000 -0.349233 0.000000
vt 0.250000 -0.349233 0.000000
vt -0.250000 0.150767 0.000000
vt 0.250000 0.150767 0.000000
vt -0.500000 -9.035898 0.000000
vt -0.250000 -0.027834 0.000000
vt -0.500000 7.303848 0.000000
vt 0.250000 -0.027834 0.000000
vt 0.750000 7.303848 0.000000
vt 0.750000 -9.035898 0.000000
vt 0.250000 -1.727834 0.000000
vt -0.250000 -1.727834 0.000000
vt 1.732051 6.825318 0.000000
vt -1.732051 6.825318 0.000000
vt 9.901924 -7.325318 0.000000
vt -9.901924 -7.325318 0.000000
vt 8.169873 -10.325318 0.000000
vt -8.169873 -10.325318 0.000000
vt -0.500000 -5.073557 0.000000
vt 0.750000 -5.073557 0.000000
vt -0.500000 -1.609456 0.000000
vt 0.750000 -1.609456 0.000000
vt 0.500000 -0.959936 0.000000
vt -0.750000 -0.959936 0.000000
vt 0.500000 -4.424038 0.000000
vt -0.750000 -4.424038 0.000000
vt 0.203077 -2.091941 0.000000
vt 0.500000 5.261379 0.000000
vt -0.296923 -2.091941 0.000000
vt -0.750000 5.261379 0.000000
vt -0.750000 -11.078367 0.000000
vt 0.500000 -11.078367 0.000000
vt 0.203077 -3.791941 0.000000
vt -0.296923 -3.791941 0.000000
vt 0.500000 1.587713 0.000000
vt -0.750000 1.587713 0.000000
vt 0.500000 -1.876388 0.000000
vt -0.750000 -1.876388 0.000000
vt 0.750000 0.577350 0.000000
vt -0.750000 0.577350 0.000000
vt 0.750000 -0.577350 0.000000
vt -0.750000 -0.577350 0.000000
vt 0.306552 -2.380488 0.000000
vt 0.750000 6.632586 0.000000
vt 0.306552 -0.680488 0.000000
vt -0.500000 6.632586 0.000000
vt -0.193448 -0.680488 0.000000
vt -0.193448 -2.380488 0.000000
vt -0.500000 -9.707160 0.000000
vt 0.750000 -9.707160 0.000000
vt -0.750000 -3.413675 0.000000
vt 0.750000 -3.413675 0.000000
vt -0.750000 -2.258975 0.000000
vt 0.750000 -2.258975 0.000000
vt 1.732051 6.825318 0.000000
vt -0.577350 9.825318 0.000000
vt -1.732051 6.825318 0.000000
vt -11.922650 -9.825318 0.000000
vt -9.901924 -7.325318 0.000000
vt -8.169873 -10.325318 0.000000
vt -11.345299 -10.825318 0.000000
vt 11.345299 -10.825318 0.000000
vt 9.901924 -7.325318 0.000000
vt 11.922650 -9.825318 0.000000
vt 0.577350 9.825318 0.000000
vt 8.169873 -10.325318 0.000000
vt 0.577350 9.825318 0.000000
vt -0.577350 9.825318 0.000000
vt 11.922650 -9.825318 0.000000
vt -11.922650 -9.825318 0.000000
vt 11.345299 -10.825318 0.000000
vt -11.345299 -10.825318 0.000000
vt 11.638192 0.500000 0.000000
vt 1.154701 0.000000 0.000000
vt 13.338192 0.500000 0.000000
vt 23.845299 0.000000 0.000000
vt 13.338192 1.000000 0.000000
vt 23.845299 1.500000 0.000000
vt 1.154701 1.500000 0.000000
vt 11.638192 1.000000 0.000000
vt 0.750000 -2.114637 0.000000
vt -0.750000 -2.114637 0.000000
vt 0.750000 -3.269338 0.000000
vt -0.750000 -3.269338 0.000000
vn 0.050000 -0.086603 0.000000
vn 0.050000 -0.086603 0.000000
vn 0.050000 -0.086603 0.000000
vn 0.050000 -0.086603 0.000000
vn 0.086603 0.050000 0.000000
vn 0.086603 0.050000 0.000000
vn 0.086603 0.050000 0.000000
vn 0.086603 0.050000 0.000000
vn 0.086603 0.050000 0.000000
vn 0.086603 0.050000 0.000000
vn 0.086603 0.050000 0.000000
vn 0.086603 0.050000 0.000000
vn 0.000000 0.000000 -0.100000
vn 0.000000 0.000000 -0.100000
vn 0.000000 0.000000 -0.100000
vn 0.000000 0.000000 -0.100000
vn -0.050000 0.086603 -0.000000
vn -0.050000 0.086603 -0.000000
vn -0.050000 0.086603 -0.000000
vn -0.050000 0.086603 -0.000000
vn 0.000000 0.000000 0.100000
vn 0.000000 0.000000 0.100000
vn 0.000000 0.000000 0.100000
vn 0.000000 0.000000 0.100000
vn 0.000000 0.000000 -0.100000
vn 0.000000 0.000000 -0.100000
vn 0.000000 0.000000 -0.100000
vn 0.000000 0.000000 -0.100000
vn -0.050000 -0.086603 0.000000
vn -0.050000 -0.086603 0.000000
vn -0.050000 -0.086603 0.000000
vn -0.050000 -0.086603 0.000000
vn 0.000000 0.000000 0.100000
vn 0.000000 0.000000 0.100000
vn 0.000000 0.000000 0.100000
vn 0.000000 0.000000 0.100000
vn 0.050000 0.086603 0.000000
vn 0.050000 0.086603 0.000000
vn 0.050000 0.086603 0.000000
vn 0.050000 0.086603 0.000000
vn -0.086603 0.050000 0.000000
vn -0.086603 0.050000 0.000000
vn -0.086603 0.050000 0.000000
vn -0.086603 0.050000 0.000000
vn -0.086603 0.050000 0.000000
vn -0.086603 0.050000 0.000000
vn -0.086603 0.050000 0.000000
vn -0.086603 0.050000 0.000000
vn 0.000000 0.000000 -0.100000
vn 0.000000 0.000000 -0.100000
vn 0.000000 0.000000 -0.100000
vn 0.000000 0.000000 -0.100000
vn -0.100000 0.000000 0.000000
vn -0.100000 0.000000 0.000000
vn -0.100000 0.000000 0.000000
vn -0.100000 0.000000 0.000000
vn 0.000000 0.000000 0.100000
vn 0.000000 0.000000 0.100000
vn 0.000000 0.000000 0.100000
vn 0.000000 0.000000 0.100000
vn 0.100000 0.000000 0.000000
vn 0.100000 0.000000 0.000000
vn 0.100000 0.000000 0.000000
vn 0.100000 0.000000 0.000000
vn -0.000000 0.100000 -0.000000
vn -0.000000 0.100000 -0.000000
vn -0.000000 0.100000 -0.000000
vn -0.000000 0.100000 -0.000000
vn -0.000000 0.100000 -0.000000
vn -0.000000 0.100000 -0.000000
vn -0.000000 0.100000 -0.000000
vn -0.000000 0.100000 -0.000000
vn 0.000000 0.000000 0.100000
vn 0.000000 0.000000 0.100000
vn 0.000000 0.000000 0.100000
vn 0.000000 0.000000 0.100000
vn 0.000000 0.000000 0.100000
vn 0.000000 0.000000 0.100000
vn -0.086603 0.050000 -0.000000
vn -0.086603 0.050000 -0.000000
vn -0.086603 0.050000 -0.000000
vn -0.086603 0.050000 -0.000000
vn 0.086603 0.050000 0.000000
vn 0.086603 0.050000 0.000000
vn 0.086603 0.050000 0.000000
vn 0.086603 0.050000 0.000000
vn 0.086603 -0.050000 0.000000
vn 0.086603 -0.050000 0.000000
vn 0.086603 -0.050000 0.000000
vn 0.086603 -0.050000 0.000000
vn 0.086603 -0.050000 0.000000
vn 0.086603 -0.050000 0.000000
vn 0.086603 -0.050000 0.000000
vn 0.086603 -0.050000 0.000000
vn 0.000000 -0.100000 0.000000
vn 0.000000 -0.100000 0.000000
vn 0.000000 -0.100000 0.000000
vn 0.000000 -0.100000 0.000000
vn 0.000000 0.100000 0.000000
vn 0.000000 0.100000 0.000000
vn 0.000000 0.100000 0.000000
vn 0.000000 0.100000 0.000000
vn -0.086603 -0.050000 0.000000
vn -0.086603 -0.050000 0.000000
vn -0.086603 -0.050000 0.000000
vn -0.086603 -0.050000 0.000000
vn -0.086603 -0.050000 0.000000
vn -0.086603 -0.050000 0.000000
vn -0.086603 -0.050000 0.000000
vn -0.086603 -0.050000 0.000000
vn 0.086603 -0.050000 0.000000
vn 0.086603 -0.050000 0.000000
vn 0.086603 -0.050000 0.000000
vn 0.086603 -0.050000 0.000000
vn 0.000000 0.000000 0.100000
vn 0.000000 0.000000 0.100000
vn 0.000000 0.000000 0.100000
vn 0.000000 0.000000 0.100000
vn 0.000000 0.000000 0.100000
vn 0.000000 0.000000 0.100000
vn 0.000000 0.000000 0.100000
vn 0.000000 0.000000 0.100000
vn 0.000000 0.000000 0.100000
vn 0.000000 0.000000 0.100000
vn 0.000000 0.000000 0.100000
vn 0.000000 0.000000 0.100000
vn -0.000000 0.000000 -0.100000
vn -0.000000 0.000000 -0.100000
vn -0.000000 0.000000 -0.100000
vn -0.000000 0.000000 -0.100000
vn -0.000000 0.000000 -0.100000
vn -0.000000 0.000000 -0.100000
vn 0.000000 -0.100000 0.000000
vn 0.000000 -0.100000 0.000000
vn 0.000000 -0.100000 0.000000
vn 0.000000 -0.100000 0.000000
vn 0.000000 -0.100000 0.000000
vn 0.000000 -0.100000 0.000000
vn 0.000000 -0.100000 0.000000
vn 0.000000 -0.100000 0.000000
vn -0.086603 -0.050000 0.000000
vn -0.086603 -0.050000 0.000000
vn -0.086603 -0.050000 0.000000
vn -0.086603 -0.050000 0.000000
usemtl Steel_-_Satin
f 2/1/1 3/2/2 1/3/3
f 1/3/3 3/2/2 4/4/4
f 1/5/5 7/6/6 5/7/7
f 5/7/7 7/6/6 8/8/8
f 5/7/7 8/8/8 6/9/9
f 6/9/9 8/8/8 9/10/10
f 6/9/9 9/10/10 10/11/11
f 1/5/5 4/12/12 7/6/6
f 7/6/6 4/12/12 10/11/11
f 10/11/11 4/12/12 6/9/9
f 2/13/13 1/14/14 11/15/15
f 11/15/15 1/14/14 5/16/16
f 5/17/17 6/18/18 11/19/19
f 11/19/19 6/18/18 12/20/20
f 3/21/21 12/22/22 4/23/23
f 4/23/23 12/22/22 6/24/24
f 13/25/25 14/26/26 16/27/27
f 16/27/27 14/26/26 15/28/28
f 16/29/29 17/30/30 13/31/31
f 13/31/31 17/30/30 18/32/32
f 18/33/33 17/34/34 19/35/35
f 19/35/35 17/34/34 20/36/36
f 14/37/37 19/38/38 15/39/39
f 15/39/39 19/38/38 20/40/40
f 15/41/41 23/42/42 16/43/43
f 16/43/43 23/42/42 24/44/44
f 16/43/43 24/44/44 17/45/45
f 17/45/45 24/44/44 21/46/46
f 17/45/45 21/46/46 22/47/47
f 15/41/41 20/48/48 23/42/42
f 23/42/42 20/48/48 22/47/47
f 22/47/47 20/48/48 17/45/45
f 25/49/49 26/50/50 28/51/51
f 28/51/51 26/50/50 27/52/52
f 26/53/53 29/54/54 27/55/55
f 27/55/55 29/54/54 30/56/56
f 29/57/57 31/58/58 30/59/59
f 30/59/59 31/58/58 32/60/60
f 28/61/61 32/62/62 25/63/63
f 25/63/63 32/62/62 31/64/64
f 34/65/65 29/66/66 33/67/67
f 33/67/67 29/66/66 26/68/68
f 33/67/67 26/68/68 36/69/69
f 36/69/69 26/68/68 35/70/70
f 35/70/70 26/68/68 25/71/71
f 35/70/70 25/71/71 34/65/65
f 34/65/65 25/71/71 31/72/72
f 34/65/65 31/72/72 29/66/66
f 38/73/73 39/74/74 37/75/75
f 37/75/75 39/74/74 40/76/76
f 37/75/75 40/76/76 33/77/77
f 33/77/77 40/76/76 34/78/78
f 33/79/79 36/80/80 37/81/81
f 37/81/81 36/80/80 41/82/82
f 40/83/83 42/84/84 34/85/85
f 34/85/85 42/84/84 35/86/86
f 18/87/87 39/88/88 13/89/89
f 13/89/89 39/88/88 43/90/90
f 13/89/89 43/90/90 42/91/91
f 39/88/88 18/87/87 40/92/92
f 40/92/92 18/87/87 19/93/93
f 40/92/92 19/93/93 14/94/94
f 40/92/92 14/94/94 42/91/91
f 42/91/91 14/94/94 13/89/89
f 38/95/95 44/96/96 39/97/97
f 39/97/97 44/96/96 43/98/98
f 7/99/99 10/100/100 24/101/101
f 24/101/101 10/100/100 21/102/102
f 11/103/103 44/104/104 2/105/105
f 2/105/105 44/104/104 38/106/106
f 2/105/105 38/106/106 3/107/107
f 3/107/107 38/106/106 12/108/108
f 12/108/108 38/106/106 37/109/109
f 12/108/108 37/109/109 11/103/103
f 11/103/103 37/109/109 41/110/110
f 11/103/103 41/110/110 44/104/104
f 45/111/111 46/112/112 8/113/113
f 8/113/113 46/112/112 9/114/114
f 44/115/115 24/116/116 43/117/117
f 43/117/117 24/116/116 23/118/118
f 43/117/117 23/118/118 42/119/119
f 42/119/119 23/118/118 35/120/120
f 35/120/120 23/118/118 47/121/121
f 35/120/120 47/121/121 45/122/122
f 41/123/123 8/124/124 44/115/115
f 44/115/115 8/124/124 7/125/125
f 44/115/115 7/125/125 24/116/116
f 41/123/123 36/126/126 8/124/124
f 8/124/124 36/126/126 45/122/122
f 45/122/122 36/126/126 35/120/120
f 21/127/127 10/128/128 22/129/129
f 22/129/129 10/128/128 9/130/130
f 22/129/129 9/130/130 48/131/131
f 48/131/131 9/130/130 46/132/132
f 32/133/133 48/134/134 30/135/135
f 30/135/135 48/134/134 46/136/136
f 30/135/135 46/136/136 27/137/137
f 27/137/137 46/136/136 45/138/138
f 27/137/137 45/138/138 47/139/139
f 32/133/133 28/140/140 48/134/134
f 48/134/134 28/140/140 47/139/139
f 47/139/139 28/140/140 27/137/137
f 23/141/141 22/142/142 47/143/143
f 47/143/143 22/142/142 48/144/144

# 48 vertices
# 144 texture params
# 144 normals
# 104 facets

# 1 groups
